<?xml version="1.0" encoding="utf-8"?>
<!-- Generator: Adobe Illustrator 22.0.1, SVG Export Plug-In . SVG Version: 6.00 Build 0)  -->
<svg version="1.1" id="Layer_1" xmlns="http://www.w3.org/2000/svg" xmlns:xlink="http://www.w3.org/1999/xlink" x="0px" y="0px"
	 viewBox="0 0 24 24" style="enable-background:new 0 0 24 24;" xml:space="preserve">
<g>
	<path d="M21.8,11.5v7.2c0,1.7-1.3,3-3,3H5.2c-1.7,0-3-1.3-3-3v-7.1c0-0.3,0.2-0.5,0.5-0.5h1c0.3,0,0.5,0.2,0.5,0.5v7.1
		c0,0.6,0.4,1,1,1h13.6c0.6,0,1-0.4,1-1v-7.1c0-0.3,0.2-0.5,0.5-0.5h1C21.6,11,21.8,11.3,21.8,11.5z"/>
</g>
<path d="M12.9,15.8l3.2-5.6c0.4-0.7-0.1-1.5-0.9-1.5H13V3.1c0-0.4-0.3-0.8-0.8-0.8h-0.4c-0.4,0-0.8,0.3-0.8,0.8v5.7H8.8
	c-0.8,0-1.3,0.8-0.9,1.5l3.2,5.6C11.5,16.5,12.5,16.5,12.9,15.8z"/>
</svg>
