<?xml version="1.0" encoding="utf-8"?>
<!-- Generator: Adobe Illustrator 22.0.1, SVG Export Plug-In . SVG Version: 6.00 Build 0)  -->
<svg version="1.1" id="Layer_1" xmlns="http://www.w3.org/2000/svg" xmlns:xlink="http://www.w3.org/1999/xlink" x="0px" y="0px"
	 viewBox="0 0 24 24" style="enable-background:new 0 0 24 24;" xml:space="preserve">
<path d="M13.6,20.9L12.5,22c-0.4,0.4-1.2,0.4-1.6,0l-9.2-9.2c-0.4-0.4-0.4-1.2,0-1.6L10.9,2c0.4-0.4,1.2-0.4,1.6,0l1.1,1.1
	c0.4,0.4,0.4,1.2,0,1.6l-5.7,5.4h13.6c0.6,0,1.1,0.5,1.1,1.1v1.5c0,0.6-0.5,1.1-1.1,1.1H7.9l5.7,5.4C14,19.8,14,20.5,13.6,20.9
	L13.6,20.9z"/>
</svg>
