<?xml version="1.0" encoding="utf-8"?>
<!-- Generator: Adobe Illustrator 22.0.1, SVG Export Plug-In . SVG Version: 6.00 Build 0)  -->
<svg version="1.1" id="Layer_1" xmlns="http://www.w3.org/2000/svg" xmlns:xlink="http://www.w3.org/1999/xlink" x="0px" y="0px"
	 viewBox="0 0 24 24" style="enable-background:new 0 0 24 24;" xml:space="preserve">
<g>
	<path d="M11.8,21.8H4.6c-1.7,0-3-1.3-3-3V5.2c0-1.7,1.3-3,3-3h7.1c0.3,0,0.5,0.2,0.5,0.5v1c0,0.3-0.2,0.5-0.5,0.5H4.6
		c-0.6,0-1,0.4-1,1v13.6c0,0.6,0.4,1,1,1h7.1c0.3,0,0.5,0.2,0.5,0.5v1C12.3,21.6,12,21.8,11.8,21.8z"/>
</g>
<path d="M20.4,11.1l-5.6-3.2c-0.7-0.4-1.5,0.1-1.5,0.9V11H7.7c-0.4,0-0.8,0.3-0.8,0.8v0.4c0,0.4,0.3,0.8,0.8,0.8h5.7v2.2
	c0,0.8,0.8,1.3,1.5,0.9l5.6-3.2C21.1,12.5,21.1,11.5,20.4,11.1z"/>
</svg>
