<?xml version="1.0" standalone="no"?>
<!DOCTYPE svg PUBLIC "-//W3C//DTD SVG 20010904//EN"
 "http://www.w3.org/TR/2001/REC-SVG-20010904/DTD/svg10.dtd">
<svg version="1.0" xmlns="http://www.w3.org/2000/svg"
 width="700.000000pt" height="700.000000pt" viewBox="0 0 700.000000 700.000000"
 preserveAspectRatio="xMidYMid meet">
<metadata>
Created by potrace 1.11, written by Peter Selinger 2001-2013
</metadata>
<g transform="translate(0.000000,700.000000) scale(0.100000,-0.100000)"
fill="#000000" stroke="none">
<path d="M3415 6325 c-126 -22 -250 -95 -322 -190 -17 -23 -104 -155 -193
-295 -89 -140 -181 -284 -204 -320 -81 -126 -139 -216 -211 -330 -83 -130
-163 -255 -285 -445 -45 -71 -107 -168 -137 -215 -30 -47 -85 -132 -122 -190
-37 -58 -162 -253 -278 -435 -116 -181 -263 -411 -326 -510 -402 -627 -435
-683 -453 -775 -53 -275 130 -550 405 -605 43 -9 85 -15 92 -13 30 6 18 -19
-68 -150 -49 -75 -151 -230 -226 -344 -74 -114 -147 -226 -161 -251 -121 -206
-86 -460 85 -629 80 -79 160 -120 269 -140 61 -10 481 -13 2220 -12 1180 1
2168 4 2197 8 347 43 551 424 395 736 -21 41 -112 188 -203 325 -233 353 -288
439 -289 449 0 4 27 10 59 12 169 11 333 126 411 289 43 89 57 151 54 240 -5
146 -10 157 -251 533 -297 464 -541 846 -634 992 -40 63 -101 158 -135 210
-33 52 -130 203 -214 335 -84 132 -178 278 -208 325 -30 47 -67 105 -83 130
-16 25 -33 50 -39 57 -5 7 -10 15 -10 18 0 3 -30 51 -67 107 -36 57 -81 126
-98 153 -18 28 -94 147 -170 265 -330 517 -317 499 -395 561 -112 91 -259 128
-405 104z"/>
</g>
</svg>
